<svg width="10" height="19" viewBox="0 0 10 19" fill="none" xmlns="http://www.w3.org/2000/svg">
<path d="M9.13613 2.22613C9.21507 2.14259 9.27678 2.04432 9.31774 1.93693C9.35871 1.82955 9.37812 1.71514 9.37487 1.60025C9.37162 1.48536 9.34577 1.37224 9.2988 1.26734C9.25183 1.16244 9.18466 1.06782 9.10113 0.988876C9.01759 0.909935 8.91932 0.848221 8.81193 0.807257C8.70455 0.766294 8.59014 0.746883 8.47525 0.750133C8.36036 0.753383 8.24724 0.77923 8.14234 0.826199C8.03744 0.873168 7.94282 0.940338 7.86387 1.02388L0.426375 8.89888C0.272781 9.06134 0.187201 9.27643 0.187201 9.5C0.187201 9.72357 0.272781 9.93867 0.426375 10.1011L7.86387 17.977C7.9423 18.0624 8.0369 18.1313 8.14218 18.1798C8.24747 18.2283 8.36134 18.2554 8.47719 18.2595C8.59303 18.2636 8.70854 18.2447 8.817 18.2038C8.92546 18.1629 9.02472 18.1008 9.109 18.0212C9.19328 17.9417 9.26091 17.8461 9.30795 17.7402C9.355 17.6342 9.38052 17.52 9.38305 17.4041C9.38557 17.2882 9.36504 17.173 9.32265 17.0651C9.28026 16.9572 9.21686 16.8588 9.13613 16.7756L2.26563 9.5L9.13613 2.22613Z" fill="#1E1E1E"/>
</svg>
