<svg width="29" height="29" viewBox="0 0 29 29" fill="none" xmlns="http://www.w3.org/2000/svg">
<path d="M6.24042 25.2022L9.7591 21.6019L10.6388 19.8018M16.7965 25.2022V20.4018L12.1049 16.8015L12.6913 9.60095M12.1049 4.80056C12.1049 5.11885 12.2285 5.4241 12.4484 5.64916C12.6684 5.87422 12.9667 6.00066 13.2778 6.00066C13.5889 6.00066 13.8872 5.87422 14.1071 5.64916C14.3271 5.4241 14.4507 5.11885 14.4507 4.80056C14.4507 4.48228 14.3271 4.17703 14.1071 3.95196C13.8872 3.7269 13.5889 3.60046 13.2778 3.60046C12.9667 3.60046 12.6684 3.7269 12.4484 3.95196C12.2285 4.17703 12.1049 4.48228 12.1049 4.80056Z" stroke="#1E1E1E" stroke-opacity="0.75" stroke-width="1.72462" stroke-linecap="round" stroke-linejoin="round"/>
<path d="M6.24048 14.401L7.41337 10.8007L12.6914 9.60065L16.7965 13.2009L21.4881 14.401" stroke="#1E1E1E" stroke-opacity="0.75" stroke-width="1.72462" stroke-linecap="round" stroke-linejoin="round"/>
<path d="M22.0745 19.202C22.2301 19.202 22.3792 19.1388 22.4892 19.0262C22.5992 18.9137 22.661 18.7611 22.661 18.6019C22.661 18.4428 22.5992 18.2902 22.4892 18.1776C22.3792 18.0651 22.2301 18.0019 22.0745 18.0019C21.919 18.0019 21.7698 18.0651 21.6599 18.1776C21.5499 18.2902 21.4881 18.4428 21.4881 18.6019C21.4881 18.7611 21.5499 18.9137 21.6599 19.0262C21.7698 19.1388 21.919 19.202 22.0745 19.202Z" fill="#1E1E1E" fill-opacity="0.75" stroke="#1E1E1E" stroke-opacity="0.75" stroke-width="1.72462" stroke-linecap="round" stroke-linejoin="round"/>
</svg>
