<svg width="25" height="26" viewBox="0 0 25 26" fill="none" xmlns="http://www.w3.org/2000/svg">
<path d="M18.7166 2.83701C18.5749 2.67577 18.4024 2.54727 18.2102 2.4598C18.018 2.37232 17.8104 2.32781 17.6007 2.32913H7.09062C6.88253 2.32864 6.67665 2.37357 6.4862 2.46104C6.29576 2.5485 6.12498 2.67657 5.98484 2.83701C5.8415 2.99437 5.73063 3.18073 5.65908 3.38456C5.58754 3.58839 5.55685 3.80536 5.5689 4.02206L6.64425 20.8879C6.68779 21.557 6.97241 22.1841 7.44097 22.6433C7.90953 23.1026 8.52733 23.36 9.17031 23.3638H15.521C16.165 23.3602 16.784 23.1031 17.2542 22.6441C17.7244 22.1851 18.0112 21.5579 18.0572 20.8879L19.1224 4.02206C19.1358 3.80611 19.1067 3.58959 19.0369 3.3858C18.9671 3.182 18.8581 2.99525 18.7166 2.83701ZM17.0427 20.8138C17.017 21.2171 16.8458 21.5953 16.5634 21.8721C16.281 22.149 15.9085 22.3039 15.521 22.3057H9.17031C8.78424 22.3022 8.41374 22.1465 8.13332 21.8697C7.85289 21.5929 7.68333 21.2157 7.65873 20.8138L7.00946 10.6351C7.43602 10.5525 7.84071 10.3757 8.19641 10.1166C8.53707 9.83762 8.96053 9.69165 9.3935 9.70395C9.82954 9.69183 10.2561 9.83765 10.6007 10.1166C11.1146 10.4886 11.7252 10.688 12.3507 10.688C12.9762 10.688 13.5868 10.4886 14.1007 10.1166C14.4461 9.8392 14.8721 9.69357 15.3079 9.70395C15.7409 9.69165 16.1644 9.83762 16.505 10.1166C16.8577 10.3743 17.2588 10.551 17.6818 10.6351L17.0427 20.8138ZM17.7528 9.57698C17.5025 9.50216 17.2658 9.38414 17.0528 9.22782C16.5415 8.84922 15.9299 8.64584 15.3029 8.64584C14.6758 8.64584 14.0642 8.84922 13.5529 9.22782C13.2082 9.49766 12.7867 9.63922 12.3558 9.62989C11.9219 9.63835 11.4975 9.497 11.1486 9.22782C10.641 8.83738 10.024 8.63279 9.3935 8.64587C8.7662 8.63354 8.15264 8.83817 7.64859 9.22782C7.43154 9.3835 7.19171 9.50143 6.93845 9.57698L6.58338 3.94799C6.57835 3.87589 6.58845 3.80352 6.61298 3.7359C6.63751 3.66829 6.67588 3.60707 6.72541 3.5565C6.77134 3.50295 6.82764 3.46016 6.8906 3.43098C6.95355 3.4018 7.02173 3.38688 7.09062 3.38721H17.6007C17.6709 3.38795 17.7403 3.40331 17.8047 3.43238C17.8692 3.46145 17.9274 3.50365 17.976 3.5565C18.0243 3.60759 18.0612 3.66918 18.084 3.73686C18.1068 3.80454 18.1149 3.87663 18.1079 3.94799L17.7528 9.57698Z" fill="#1E1E1E" fill-opacity="0.75"/>
<path d="M17.6005 2.2168V2.21777C17.8265 2.21644 18.05 2.2633 18.2568 2.35742C18.4634 2.45147 18.6488 2.58906 18.8007 2.76172L18.9081 2.89453C19.0084 3.0325 19.0876 3.1863 19.1435 3.34961C19.218 3.56736 19.2496 3.79877 19.2353 4.0293L18.1699 20.8945V20.8955C18.122 21.5924 17.8234 22.2458 17.3329 22.7246C16.9035 23.1438 16.3545 23.4024 15.7724 23.4629L15.5214 23.4766H9.16986C8.49694 23.4726 7.85124 23.2029 7.36224 22.7236C6.87347 22.2446 6.57754 21.5915 6.53217 20.8955L5.45599 4.0293V4.02832C5.44313 3.79704 5.4763 3.56542 5.55267 3.34766C5.62915 3.12976 5.74762 2.92946 5.90131 2.76074C6.05144 2.58939 6.23497 2.45229 6.43939 2.3584C6.64446 2.26426 6.86636 2.21628 7.09076 2.2168H17.6005ZM9.39056 9.81641C8.98523 9.80489 8.58755 9.94201 8.26752 10.2041L8.26263 10.208C7.92093 10.4569 7.53494 10.6309 7.12787 10.7236L7.77142 20.8066L7.78607 20.9463C7.83527 21.268 7.9852 21.5644 8.21283 21.7891C8.47276 22.0456 8.8149 22.19 9.17084 22.1934H15.5204C15.8779 22.1917 16.2224 22.0486 16.4843 21.792C16.7464 21.5351 16.9067 21.1829 16.9306 20.8066L17.5624 10.7227C17.1592 10.6287 16.7769 10.4553 16.4384 10.208L16.4335 10.2041C16.1136 9.94208 15.7167 9.80497 15.3115 9.81641H15.3056C14.8969 9.80667 14.4958 9.94307 14.1708 10.2041L14.1669 10.208C13.6341 10.5938 13.0002 10.8008 12.3505 10.8008C11.701 10.8007 11.0669 10.5937 10.5341 10.208L10.5292 10.2041V10.2031C10.2053 9.94126 9.80473 9.80506 9.39642 9.81641H9.39056ZM7.08978 3.5C7.03781 3.49979 6.98627 3.51109 6.93842 3.5332C6.89045 3.55544 6.84702 3.58848 6.81146 3.62988L6.80658 3.63574L6.72552 3.55664L6.8056 3.63574C6.76769 3.67454 6.73776 3.72186 6.71869 3.77441C6.7092 3.8006 6.70304 3.82787 6.69916 3.85547L6.69623 3.94043L7.04095 9.42188C7.17342 9.37301 7.30189 9.31328 7.42377 9.24023L7.58295 9.13574C8.10524 8.73323 8.74099 8.52138 9.39154 8.5332H9.39447C10.0499 8.52037 10.6911 8.73352 11.2177 9.13867C11.5465 9.39228 11.9458 9.5255 12.3535 9.51758L12.3583 9.5166V9.51758C12.7627 9.52631 13.1588 9.39272 13.4833 9.13867L13.4853 9.13672C14.0157 8.74401 14.6511 8.53324 15.3027 8.5332C15.9542 8.5332 16.5896 8.74405 17.1201 9.13672C17.2836 9.25668 17.4618 9.35188 17.6494 9.42188L17.9951 3.94043L17.996 3.93652C18.0014 3.88113 17.9951 3.82481 17.9775 3.77246C17.9598 3.72013 17.9313 3.67275 17.8945 3.63379L17.8935 3.63281C17.8551 3.59106 17.809 3.55787 17.7587 3.53516C17.7336 3.5238 17.7072 3.51468 17.6806 3.50879L17.5995 3.5H7.08978Z" stroke="#1E1E1E" stroke-opacity="0.75" stroke-width="0.225528"/>
</svg>
