<svg width="22" height="31" viewBox="0 0 22 31" fill="none" xmlns="http://www.w3.org/2000/svg">
<g clip-path="url(#clip0_4_99)">
<path d="M6.06585 22.8425C6.97801 23.9482 7.8082 25.1129 8.55039 26.3282C9.1841 27.4711 9.44827 28.2461 9.91138 29.6233C10.1954 30.3842 10.4521 30.6112 11.004 30.6112C11.6054 30.6112 11.8782 30.2249 12.089 29.6274C12.5268 28.3269 12.8703 27.3344 13.4122 26.3965C14.4756 24.5859 15.797 22.9769 17.0953 21.4306C17.4468 20.9929 19.7193 18.4433 20.7424 16.4315C20.7424 16.4315 21.9999 14.2215 21.9999 11.1351C21.9999 8.24807 20.7598 6.24576 20.7598 6.24576L17.1895 7.15524L15.0213 12.5872L14.4849 13.3362L14.3776 13.4719L14.235 13.6418L13.9846 13.9131L13.6267 14.2534L11.696 15.7496L6.86885 18.4007L6.06585 22.8425Z" fill="#34A853"/>
<path d="M1.08301 16.0574C2.26113 18.6171 4.53297 20.8671 6.07005 22.8418L14.2342 13.6428C14.2342 13.6428 13.084 15.0736 10.9976 15.0736C8.67361 15.0736 6.79614 13.3084 6.79614 11.0825C6.79614 9.55609 7.76156 8.50748 7.76156 8.50748L2.21954 9.92001L1.08301 16.0574Z" fill="#FBBC04"/>
<path d="M14.3254 1.08951C17.0369 1.92109 19.3577 3.66689 20.7615 6.24125L14.2367 13.6373C14.2367 13.6373 15.2021 12.5697 15.2021 11.0528C15.2021 8.77507 13.1858 7.07348 11.0075 7.07348C8.94767 7.07348 7.76465 8.50196 7.76465 8.50196V3.84256L14.3254 1.08951Z" fill="#4285F4"/>
<path d="M2.57925 4.35905C4.19874 2.51597 7.04843 0.618042 10.9771 0.618042C12.8832 0.618042 14.3193 1.09404 14.3193 1.09404L7.75913 8.50763H3.1112L2.57925 4.35905Z" fill="#1A73E8"/>
<path d="M1.08343 16.0588C1.08343 16.0588 -0.000413895 14.0399 -0.000413895 11.1151C-0.000413895 8.35076 1.12932 5.93441 2.579 4.35904L7.76258 8.50828L1.08343 16.0588Z" fill="#EA4335"/>
</g>
<defs>
<clipPath id="clip0_4_99">
<rect width="22" height="30" fill="white" transform="translate(0 0.618164)"/>
</clipPath>
</defs>
</svg>
