<svg width="33" height="34" viewBox="0 0 33 34" fill="none" xmlns="http://www.w3.org/2000/svg">
<path opacity="0.2" d="M29.4202 11.6391V22.2199H27.3913C26.046 22.2199 24.7558 21.6625 23.8045 20.6704C22.8533 19.6782 22.3189 18.3326 22.3189 16.9295C22.3189 15.5264 22.8533 14.1808 23.8045 13.1886C24.7558 12.1965 26.046 11.6391 27.3913 11.6391H29.4202ZM5.07267 11.6391H3.0437V22.2199H5.07267C6.41795 22.2199 7.70814 21.6625 8.6594 20.6704C9.61066 19.6782 10.1451 18.3326 10.1451 16.9295C10.1451 15.5264 9.61066 14.1808 8.6594 13.1886C7.70814 12.1965 6.41795 11.6391 5.07267 11.6391Z" fill="#1E1E1E" fill-opacity="0.75"/>
<path d="M28.406 6.34875C28.944 6.34887 29.4602 6.57212 29.8406 6.96887C30.2209 7.3657 30.4343 7.90387 30.4343 8.46497V25.3947C30.4342 25.9557 30.2209 26.494 29.8406 26.8907C29.4602 27.2875 28.944 27.5098 28.406 27.5099H4.05835C3.52038 27.5099 3.00425 27.2874 2.62378 26.8907C2.24338 26.494 2.02917 25.9557 2.02905 25.3947V8.46497C2.02905 7.90373 2.24327 7.36573 2.62378 6.96887C3.00428 6.57206 3.52027 6.34875 4.05835 6.34875H28.406ZM4.05835 8.46497V10.5812H5.07202C6.68637 10.5812 8.2352 11.25 9.37671 12.4406C10.5182 13.6311 11.1589 15.2461 11.1589 16.9298C11.1589 18.6134 10.5182 20.2286 9.37671 21.4191C8.23521 22.6095 6.68629 23.2784 5.07202 23.2784H4.05835V25.3947H15.2175V8.46497H4.05835ZM17.2458 8.46497V25.3947H28.406V23.2784H27.3914C25.777 23.2784 24.2282 22.6096 23.0867 21.4191C21.9452 20.2286 21.3045 18.6134 21.3044 16.9298C21.3044 15.2462 21.9453 13.6311 23.0867 12.4406C24.2282 11.25 25.777 10.5812 27.3914 10.5812H28.406V8.46497H17.2458ZM4.05835 12.6974V21.1622H5.07202C6.14825 21.1622 7.18113 20.7157 7.94214 19.922C8.70293 19.1284 9.13055 18.0521 9.13062 16.9298C9.13062 15.8073 8.70314 14.7304 7.94214 13.9366C7.18113 13.1429 6.14825 12.6974 5.07202 12.6974H4.05835ZM27.3914 12.6974C26.3151 12.6974 25.2822 13.1429 24.5212 13.9366C23.7603 14.7303 23.3328 15.8074 23.3328 16.9298C23.3328 18.052 23.7605 19.1284 24.5212 19.922C25.2822 20.7157 26.3151 21.1622 27.3914 21.1622H28.406V12.6974H27.3914Z" fill="#1E1E1E" fill-opacity="0.75"/>
<path d="M28.406 6.34875C28.944 6.34887 29.4602 6.57212 29.8406 6.96887C30.2209 7.3657 30.4343 7.90387 30.4343 8.46497V25.3947C30.4342 25.9557 30.2209 26.494 29.8406 26.8907C29.4602 27.2875 28.944 27.5098 28.406 27.5099H4.05835C3.52038 27.5099 3.00425 27.2874 2.62378 26.8907C2.24338 26.494 2.02917 25.9557 2.02905 25.3947V8.46497C2.02905 7.90373 2.24327 7.36573 2.62378 6.96887C3.00428 6.57206 3.52027 6.34875 4.05835 6.34875H28.406ZM4.05835 8.46497V10.5812H5.07202C6.68637 10.5812 8.2352 11.25 9.37671 12.4406C10.5182 13.6311 11.1589 15.2461 11.1589 16.9298C11.1589 18.6134 10.5182 20.2286 9.37671 21.4191C8.23521 22.6095 6.68629 23.2784 5.07202 23.2784H4.05835V25.3947H15.2175V8.46497H4.05835ZM17.2458 8.46497V25.3947H28.406V23.2784H27.3914C25.777 23.2784 24.2282 22.6096 23.0867 21.4191C21.9452 20.2286 21.3045 18.6134 21.3044 16.9298C21.3044 15.2462 21.9453 13.6311 23.0867 12.4406C24.2282 11.25 25.777 10.5812 27.3914 10.5812H28.406V8.46497H17.2458ZM4.05835 12.6974V21.1622H5.07202C6.14825 21.1622 7.18113 20.7157 7.94214 19.922C8.70293 19.1284 9.13055 18.0521 9.13062 16.9298C9.13062 15.8073 8.70314 14.7304 7.94214 13.9366C7.18113 13.1429 6.14825 12.6974 5.07202 12.6974H4.05835ZM27.3914 12.6974C26.3151 12.6974 25.2822 13.1429 24.5212 13.9366C23.7603 14.7303 23.3328 15.8074 23.3328 16.9298C23.3328 18.052 23.7605 19.1284 24.5212 19.922C25.2822 20.7157 26.3151 21.1622 27.3914 21.1622H28.406V12.6974H27.3914Z" stroke="white"/>
</svg>
