<svg width="19" height="19" viewBox="0 0 19 19" fill="none" xmlns="http://www.w3.org/2000/svg">
<g clip-path="url(#clip0_4_219)">
<path d="M17.1502 8.51244H16.2881C15.8016 8.51244 15.4084 8.83557 15.4084 9.2334C15.4084 9.63033 15.8016 9.95256 16.2881 9.95256H17.1502C17.6357 9.95256 18.0298 9.63123 18.0298 9.2334C18.0298 8.83647 17.6349 8.51244 17.1502 8.51244ZM9.23311 4.283C8.5972 4.28097 7.96717 4.40764 7.37928 4.65571C6.7914 4.90377 6.25725 5.26834 5.80759 5.72843C5.35793 6.18852 5.00163 6.73505 4.75918 7.33657C4.51674 7.9381 4.39295 8.58274 4.39492 9.2334C4.39492 11.9795 6.54924 14.1838 9.23311 14.1838C11.9161 14.1838 14.0713 11.9795 14.0713 9.2334C14.0713 6.48727 11.9152 4.283 9.23311 4.283ZM9.23311 12.8337C7.28816 12.8337 5.71443 11.2217 5.71443 9.2334C5.71443 7.24334 7.28816 5.63311 9.23311 5.63311C10.1663 5.63311 11.0613 6.01242 11.7212 6.68761C12.3811 7.36279 12.7518 8.27854 12.7518 9.2334C12.7518 10.1883 12.3811 11.104 11.7212 11.7792C11.0613 12.4544 10.1663 12.8337 9.23311 12.8337ZM3.07542 9.2334C3.07542 8.83647 2.68044 8.51244 2.19574 8.51244H1.31607C0.829614 8.51244 0.436401 8.83557 0.436401 9.2334C0.436401 9.63033 0.829614 9.95256 1.31607 9.95256H2.19574C2.68044 9.95256 3.07542 9.63033 3.07542 9.2334ZM9.23311 2.93289C9.62105 2.93289 9.93597 2.53055 9.93597 2.03281V1.13274C9.93597 0.634999 9.62105 0.232666 9.23311 0.232666C8.8443 0.232666 8.5285 0.634999 8.5285 1.13274V2.03281C8.5285 2.53055 8.8443 2.93289 9.23311 2.93289ZM9.23311 15.5339C8.8443 15.5339 8.5285 15.9362 8.5285 16.434V17.3341C8.5285 17.8318 8.8443 18.2341 9.23311 18.2341C9.62105 18.2341 9.93597 17.8318 9.93597 17.3341V16.434C9.93597 15.9362 9.62105 15.5339 9.23311 15.5339ZM15.7119 3.62234C16.0558 3.27041 16.1113 2.75737 15.8368 2.47655C15.5623 2.19573 15.0601 2.25333 14.7179 2.60526L14.1021 3.23441C13.7581 3.58634 13.7027 4.09938 13.9772 4.3802C14.2516 4.66103 14.7539 4.60342 15.097 4.25149L15.7119 3.62234ZM3.36923 14.2135L2.75346 14.8445C2.4095 15.1964 2.35408 15.7076 2.62854 15.9884C2.903 16.2693 3.40529 16.2135 3.74748 15.8615L4.36325 15.2324C4.70721 14.8805 4.76262 14.3674 4.48817 14.0857C4.21371 13.804 3.71142 13.8634 3.36923 14.2135ZM3.74836 2.60436C3.40529 2.25243 2.903 2.19483 2.62854 2.47565C2.35408 2.75647 2.41038 3.27041 2.75258 3.62234L3.36835 4.25149C3.7123 4.60342 4.21283 4.66103 4.48729 4.3802C4.76174 4.09938 4.70633 3.58544 4.36325 3.23441L3.74836 2.60436ZM14.1012 15.2333L14.717 15.8624C15.0609 16.2144 15.5615 16.2702 15.8359 15.9911C16.1104 15.7103 16.055 15.1964 15.711 14.8454L15.0961 14.2162C14.7522 13.8643 14.2508 13.8067 13.9754 14.0875C13.7001 14.3683 13.7573 14.8814 14.1012 15.2333Z" fill="#1E1E1E" fill-opacity="0.75"/>
</g>
<defs>
<clipPath id="clip0_4_219">
<rect width="17.5934" height="18.0015" fill="white" transform="translate(0.436401 0.232666)"/>
</clipPath>
</defs>
</svg>
