<svg width="33" height="35" viewBox="0 0 33 35" fill="none" xmlns="http://www.w3.org/2000/svg">
<path d="M24.3471 10.3553C24.3471 10.636 24.2403 10.9051 24.05 11.1035C23.8598 11.302 23.6017 11.4134 23.3327 11.4134H20.2892C20.0202 11.4134 19.7621 11.302 19.5719 11.1035C19.3816 10.9051 19.2747 10.636 19.2747 10.3553C19.2747 10.0747 19.3816 9.8056 19.5719 9.60717C19.7621 9.40874 20.0202 9.29726 20.2892 9.29726H23.3327C23.6017 9.29726 23.8598 9.40874 24.05 9.60717C24.2403 9.8056 24.3471 10.0747 24.3471 10.3553ZM23.3327 13.5296H20.2892C20.0202 13.5296 19.7621 13.6411 19.5719 13.8395C19.3816 14.0379 19.2747 14.307 19.2747 14.5877C19.2747 14.8683 19.3816 15.1374 19.5719 15.3358C19.7621 15.5343 20.0202 15.6457 20.2892 15.6457H23.3327C23.6017 15.6457 23.8598 15.5343 24.05 15.3358C24.2403 15.1374 24.3471 14.8683 24.3471 14.5877C24.3471 14.307 24.2403 14.0379 24.05 13.8395C23.8598 13.6411 23.6017 13.5296 23.3327 13.5296ZM9.12991 11.4134H12.1734C12.4424 11.4134 12.7004 11.302 12.8907 11.1035C13.081 10.9051 13.1878 10.636 13.1878 10.3553C13.1878 10.0747 13.081 9.8056 12.8907 9.60717C12.7004 9.40874 12.4424 9.29726 12.1734 9.29726H9.12991C8.86085 9.29726 8.60281 9.40874 8.41256 9.60717C8.22231 9.8056 8.11542 10.0747 8.11542 10.3553C8.11542 10.636 8.22231 10.9051 8.41256 11.1035C8.60281 11.302 8.86085 11.4134 9.12991 11.4134ZM12.1734 13.5296H9.12991C8.86085 13.5296 8.60281 13.6411 8.41256 13.8395C8.22231 14.0379 8.11542 14.307 8.11542 14.5877C8.11542 14.8683 8.22231 15.1374 8.41256 15.3358C8.60281 15.5343 8.86085 15.6457 9.12991 15.6457H12.1734C12.4424 15.6457 12.7004 15.5343 12.8907 15.3358C13.081 15.1374 13.1878 14.8683 13.1878 14.5877C13.1878 14.307 13.081 14.0379 12.8907 13.8395C12.7004 13.6411 12.4424 13.5296 12.1734 13.5296ZM28.4051 7.1811V30.4589C28.4051 30.7395 28.2982 31.0086 28.1079 31.2071C27.9177 31.4055 27.6596 31.517 27.3906 31.517C27.1215 31.517 26.8635 31.4055 26.6732 31.2071C26.483 31.0086 26.3761 30.7395 26.3761 30.4589V28.3427H17.2458V30.4589C17.2458 30.7395 17.1389 31.0086 16.9486 31.2071C16.7584 31.4055 16.5003 31.517 16.2313 31.517C15.9622 31.517 15.7042 31.4055 15.5139 31.2071C15.3237 31.0086 15.2168 30.7395 15.2168 30.4589V28.3427H6.08646V30.4589C6.08646 30.7395 5.97958 31.0086 5.78932 31.2071C5.59907 31.4055 5.34103 31.517 5.07198 31.517C4.80292 31.517 4.54488 31.4055 4.35463 31.2071C4.16438 31.0086 4.0575 30.7395 4.0575 30.4589V7.1811C4.0575 6.61986 4.27126 6.08161 4.65176 5.68475C5.03227 5.28789 5.54834 5.06494 6.08646 5.06494H26.3761C26.9142 5.06494 27.4303 5.28789 27.8108 5.68475C28.1913 6.08161 28.4051 6.61986 28.4051 7.1811ZM15.2168 26.2266V7.1811H6.08646V26.2266H15.2168ZM17.2458 26.2266H26.3761V7.1811H17.2458V26.2266Z" fill="#1E1E1E" fill-opacity="0.75"/>
</svg>
