<svg width="24" height="24" viewBox="0 0 24 24" fill="none" xmlns="http://www.w3.org/2000/svg">
<path d="M11.1932 14.0276L10.1278 15.1178L11.1909 17.2934L12.237 16.1636L11.1932 14.0276ZM11.8712 18.6854L12.8673 20.7239L13.9134 19.5941L12.9172 17.5556L11.8712 18.6854ZM20.0436 9.85886L19.0106 10.9747L20.995 11.9457L22.0281 10.8299L20.0436 9.85886ZM15.7408 9.37455L17.6554 10.3115L18.6885 9.19574L16.8127 8.27777L15.7408 9.37455ZM14.1855 16.1859L15.4596 17.9242L16.4569 16.8471L15.1827 15.1088L14.1855 16.1859ZM14.3127 13.9218L13.0201 12.1584L11.999 13.2031L13.3154 14.9989L14.3127 13.9218ZM13.8709 11.2878L15.5095 12.6292L16.4961 11.5636L14.8879 10.2472L13.8709 11.2878ZM16.6297 13.5461L18.27 14.8888L19.2566 13.8232L17.6162 12.4806L16.6297 13.5461ZM16.0126 5.19982L14.8404 6.39913L13.7362 5.26934C13.2733 4.79564 12.7237 4.41989 12.1188 4.16352C11.5139 3.90716 10.8656 3.77521 10.2108 3.77521C9.55612 3.77521 8.9078 3.90716 8.30292 4.16352C7.69803 4.41989 7.14841 4.79564 6.68545 5.26934C6.67017 5.28493 6.65539 5.30084 6.64038 5.3166C6.11875 4.9406 5.50622 4.71843 4.86961 4.67434C4.233 4.63024 3.59678 4.76591 3.03039 5.06655C2.464 5.36719 1.9892 5.82123 1.65781 6.37914C1.32642 6.93704 1.15117 7.57737 1.15118 8.23023V19.2461H2.58065V8.23023C2.58064 7.84721 2.68295 7.47146 2.87651 7.14362C3.07007 6.81577 3.34753 6.54829 3.67889 6.37009C4.01026 6.19188 4.38292 6.10974 4.7566 6.13253C5.13028 6.15532 5.49077 6.28219 5.79909 6.49941C5.30455 7.46342 5.12383 8.56384 5.28327 9.64029C5.4427 10.7167 5.93396 11.713 6.68545 12.4838L7.78958 13.6135L6.72105 14.7068L7.61447 15.621L16.906 6.11396L16.0126 5.19982ZM8.70082 12.4775L7.69622 11.4495C7.03577 10.7658 6.6666 9.8424 6.66935 8.88106C6.67211 7.91972 7.04655 6.99855 7.71091 6.31876C8.37526 5.63898 9.27553 5.25582 10.2151 5.25296C11.1546 5.25011 12.0571 5.62781 12.7254 6.30355L13.73 7.3315L8.70082 12.4775Z" fill="#1E1E1E" fill-opacity="0.75"/>
</svg>
