<svg width="31" height="32" viewBox="0 0 31 32" fill="none" xmlns="http://www.w3.org/2000/svg">
<path fill-rule="evenodd" clip-rule="evenodd" d="M11.2924 5.82574H19.142C20.2046 5.82574 20.8818 5.82574 21.4651 5.9461C22.6336 6.18851 23.7068 6.78685 24.5492 7.66544C25.3916 8.54402 25.9653 9.66341 26.1977 10.882C26.2865 11.345 26.3067 11.8647 26.3118 12.575C27.0425 12.7909 27.6856 13.2496 28.1436 13.8815C28.6016 14.5134 28.8494 15.2838 28.8493 16.0759V19.3083C28.8493 21.3319 27.8373 23.1095 26.3131 24.1186V25.3341C26.3131 25.5972 26.2129 25.8495 26.0345 26.0355C25.8562 26.2216 25.6143 26.3261 25.362 26.3261C25.1098 26.3261 24.8679 26.2216 24.6895 26.0355C24.5111 25.8495 24.4109 25.5972 24.4109 25.3341V24.9043C24.08 24.9704 23.7388 25.0035 23.3888 25.0035H7.04554C6.69554 25.0035 6.35442 24.9691 6.02344 24.9043V25.3341C6.02344 25.5972 5.92324 25.8495 5.74488 26.0355C5.56652 26.2216 5.32461 26.3261 5.07237 26.3261C4.82012 26.3261 4.57821 26.2216 4.39985 26.0355C4.22149 25.8495 4.12129 25.5972 4.12129 25.3341V24.1186C3.34403 23.6052 2.70391 22.895 2.26048 22.0542C1.81705 21.2134 1.58472 20.2693 1.58508 19.3097V16.0759C1.58508 14.4094 2.6579 13.0075 4.12256 12.575C4.12763 11.8647 4.14792 11.345 4.23669 10.882C4.46911 9.66341 5.04279 8.54402 5.88518 7.66544C6.72756 6.78685 7.80082 6.18851 8.96925 5.9461C9.55257 5.82574 10.2297 5.82574 11.2924 5.82574ZM6.02598 12.5763C6.75574 12.7929 7.39789 13.2517 7.85511 13.8833C8.31232 14.5148 8.55967 15.2846 8.55965 16.0759V17.663C8.55965 17.7001 8.58755 17.7292 8.62305 17.7292H21.8113C21.8281 17.7292 21.8443 17.7222 21.8562 17.7098C21.868 17.6974 21.8747 17.6806 21.8747 17.663V16.0759C21.8747 14.4121 22.9463 13.0088 24.4084 12.5763C24.4033 11.9018 24.3868 11.5579 24.3323 11.2696C24.1734 10.4355 23.7808 9.66943 23.2043 9.06815C22.6278 8.46687 21.8932 8.05743 21.0936 7.89165C20.7182 7.81494 20.2452 7.80965 19.0215 7.80965H11.4129C10.1892 7.80965 9.71616 7.81494 9.3408 7.89165C8.54114 8.05743 7.8066 8.46687 7.23009 9.06815C6.65358 9.66943 6.26102 10.4355 6.10207 11.2696C6.04754 11.5579 6.03105 11.9031 6.02598 12.5763ZM5.07237 14.4227C4.19738 14.4227 3.48724 15.1633 3.48724 16.0759V19.3083C3.48724 20.2926 3.86213 21.2366 4.52944 21.9326C5.19675 22.6286 6.10182 23.0196 7.04554 23.0196H23.3888C24.3326 23.0196 25.2376 22.6286 25.9049 21.9326C26.5723 21.2366 26.9471 20.2926 26.9471 19.3083V16.0759C26.9471 15.6374 26.7801 15.2169 26.4829 14.9069C26.1856 14.5968 25.7824 14.4227 25.362 14.4227C24.9416 14.4227 24.5384 14.5968 24.2412 14.9069C23.9439 15.2169 23.7769 15.6374 23.7769 16.0759V17.663C23.7769 18.2067 23.5698 18.7282 23.2012 19.1126C22.8326 19.4971 22.3326 19.7131 21.8113 19.7131H8.62305C8.10176 19.7131 7.60181 19.4971 7.23319 19.1126C6.86458 18.7282 6.6575 18.2067 6.6575 17.663V16.0759C6.6575 15.1633 5.94736 14.4227 5.07237 14.4227Z" fill="#1E1E1E" fill-opacity="0.75"/>
</svg>
